<svg width="928" height="384" viewBox="-12,-24,628,384" style="max-width: 100%; height: auto; font: 13px sans-serif; overflow: visible;" xmlns="http://www.w3.org/2000/svg" xmlns:xlink="http://www.w3.org/1999/xlink"><g fill="none" stroke="#999"><path d="&#10;        M0,0&#10;        V24&#10;        h24&#10;      "/><path d="&#10;        M0,0&#10;        V264&#10;        h24&#10;      "/><path d="&#10;        M0,0&#10;        V288&#10;        h24&#10;      "/><path d="&#10;        M0,0&#10;        V312&#10;        h24&#10;      "/><path d="&#10;        M0,0&#10;        V336&#10;        h24&#10;      "/><path d="&#10;        M24,24&#10;        V48&#10;        h24&#10;      "/><path d="&#10;        M24,24&#10;        V144&#10;        h24&#10;      "/><path d="&#10;        M24,24&#10;        V192&#10;        h24&#10;      "/><path d="&#10;        M24,24&#10;        V216&#10;        h24&#10;      "/><path d="&#10;        M24,24&#10;        V240&#10;        h24&#10;      "/><path d="&#10;        M48,48&#10;        V72&#10;        h24&#10;      "/><path d="&#10;        M48,48&#10;        V120&#10;        h24&#10;      "/><path d="&#10;        M48,144&#10;        V168&#10;        h24&#10;      "/><path d="&#10;        M72,72&#10;        V96&#10;        h24&#10;      "/></g><g><g transform="translate(0,0)"><circle cx="0" r="2.5"/><text dy="0.32em" x="6"><tspan font-weight="600">PROJ</tspan><tspan dx="2">Project information</tspan></text><title>PROJ</title></g><g transform="translate(0,24)"><circle cx="24" r="2.5"/><text dy="0.32em" x="30"><tspan font-weight="600">LOCA</tspan><tspan dx="2">Location details</tspan></text><title>PROJ/LOCA</title></g><g transform="translate(0,264)"><circle cx="24" r="2.5" fill="#999"/><text dy="0.32em" x="30"><tspan font-weight="600">ABBR</tspan><tspan dx="2">Abbreviation Definitions</tspan></text><title>PROJ/ABBR</title></g><g transform="translate(0,288)"><circle cx="24" r="2.5" fill="#999"/><text dy="0.32em" x="30"><tspan font-weight="600">TRAN</tspan><tspan dx="2">Data File Transmission Information / Data Status</tspan></text><title>PROJ/TRAN</title></g><g transform="translate(0,312)"><circle cx="24" r="2.5" fill="#999"/><text dy="0.32em" x="30"><tspan font-weight="600">TYPE</tspan><tspan dx="2">Definition of Data Types</tspan></text><title>PROJ/TYPE</title></g><g transform="translate(0,336)"><circle cx="24" r="2.5" fill="#999"/><text dy="0.32em" x="30"><tspan font-weight="600">UNIT</tspan><tspan dx="2">Definition of Units</tspan></text><title>PROJ/UNIT</title></g><g transform="translate(0,48)"><circle cx="48" r="2.5"/><text dy="0.32em" x="54"><tspan font-weight="600">SAMP</tspan><tspan dx="2">Sample information</tspan></text><title>PROJ/LOCA/SAMP</title></g><g transform="translate(0,144)"><circle cx="48" r="2.5"/><text dy="0.32em" x="54"><tspan font-weight="600">IPRG</tspan><tspan dx="2">Insitu permeability</tspan></text><title>PROJ/LOCA/IPRG</title></g><g transform="translate(0,192)"><circle cx="48" r="2.5" fill="#999"/><text dy="0.32em" x="54"><tspan font-weight="600">GEOL</tspan><tspan dx="2">Geological descriptions</tspan></text><title>PROJ/LOCA/GEOL</title></g><g transform="translate(0,216)"><circle cx="48" r="2.5" fill="#999"/><text dy="0.32em" x="54"><tspan font-weight="600">BKFL</tspan><tspan dx="2">Backfill details</tspan></text><title>PROJ/LOCA/BKFL</title></g><g transform="translate(0,240)"><circle cx="48" r="2.5" fill="#999"/><text dy="0.32em" x="54"><tspan font-weight="600">ISPT</tspan><tspan dx="2">Standard Penetration Test</tspan></text><title>PROJ/LOCA/ISPT</title></g><g transform="translate(0,72)"><circle cx="72" r="2.5"/><text dy="0.32em" x="78"><tspan font-weight="600">GRAG</tspan><tspan dx="2">Particle size distribution analysis</tspan></text><title>PROJ/LOCA/SAMP/GRAG</title></g><g transform="translate(0,120)"><circle cx="72" r="2.5" fill="#999"/><text dy="0.32em" x="78"><tspan font-weight="600">LNMC</tspan><tspan dx="2">Water content</tspan></text><title>PROJ/LOCA/SAMP/LNMC</title></g><g transform="translate(0,168)"><circle cx="72" r="2.5" fill="#999"/><text dy="0.32em" x="78"><tspan font-weight="600">IPRT</tspan><tspan dx="2">Insitu permeability data</tspan></text><title>PROJ/LOCA/IPRG/IPRT</title></g><g transform="translate(0,96)"><circle cx="96" r="2.5" fill="#999"/><text dy="0.32em" x="102"><tspan font-weight="600">GRAT</tspan><tspan dx="2">Particle size distribution analysis data</tspan></text><title>PROJ/LOCA/SAMP/GRAG/GRAT</title></g></g></svg>