<svg xmlns="http://www.w3.org/2000/svg" xml:space="preserve" width="49.68" height="49.68"
	viewBox="2.055 -51.39 49.68 49.68">
	<g fill="none">
		<path d="M2.055-51.39h49.68v49.68H2.055z" />
		<path stroke="#848484" stroke-linecap="round" stroke-width=".7"
			d="M16.545-49.493h0M16.545-46.733h0M16.027-44.318h0M12.06-44.145h0M18.615-37.073h0M11.197-33.45h0M18.615-32.933h0M22.583-32.933h0M23.618-35.52h0M22.237-38.97h0M25.515-37.935h0M25.515-41.213h0M23.962-43.455h0M24.308-46.733h0M23.445-49.148h0M25.515-50.7h0M30.69-46.733h0M33.45-46.905h0M31.38-42.248h0M34.485-41.73h0M34.485-38.28h0M28.965-37.245h0M36.728-42.248h0M39.833-43.973h0M41.04-51.045h0M48.63-50.355h0M48.975-44.49h0M46.388-43.11h0M47.078-40.695h0M46.215-37.935h0M46.388-36.038h0M48.975-36.9h0M6.885-15.51h0M7.057-13.958h0M3.607-13.958h0M8.782-7.403h0M2.745-4.642h0M9.645-2.572h0M14.82-6.368h0M13.267-8.61h0M15.51-11.715h0M10.507-8.783h0M13.267-13.785h0M15.337-16.372h0M12.232-16.372h0M13.267-18.96h0M24.48-16.545h0M20.858-14.13h0M24.135-13.095h0M23.445-10.852h0M19.995-7.575h0M26.895-12.75h0M30.862-16.545h0M32.07-20.685h0M36.728-16.028h0M37.59-18.615h0M40.005-19.133h0M40.005-14.13h0M37.417-12.75h0M35.002-9.99h0M40.178-11.37h0M42.248-9.127h0M16.2-36.038h0M28.965-34.485h0M34.83-32.76h0M40.178-32.243h0M37.417-34.14h0M37.935-31.208h0M45.18-27.067h0M41.213-24.653h0M35.347-25.86h0M35.175-23.1h0M35.175-21.03h0M42.765-19.65h0M45.525-17.753h0M49.32-21.375h0M44.663-24.653h0M24.48-19.133h0M20.742-23.503h0M22.583-27.067h0M9.242-32.559h0M6.195-29.828h0M3.78-27.24h0M13.785-22.583h0M11.715-28.103h0M20.34-30.69h0M30.69-29.828h0M27.757-29.828h0M23.1-24.135h0M6.54-37.418h0M8.782-38.625h0M10.162-35.348h0M4.125-33.795h0M46.388-31.208h0M50.01-31.035h0M3.09-45.353h0M14.302-46.905h0M4.642-47.423h0M10.852-41.73h0M14.82-38.28h0M16.717-26.033h0M2.572-21.03h0M50.01-6.195h0M41.73-3.953h0M30-4.642h0M5.16-10.163h0M20.34-10.507h0M27.757-18.098h0M8.092-23.79h0M38.107-25.343h0M46.733-19.995h0M37.417-5.85h0M29.655-25.515h0M21.03-42.248h0M15.682-33.278h0M10.162-50.355h0M40.178-48.975h0M35.175-3.953h0M4.642-23.445h0M49.493-42.42h0M18.097-41.903h0M14.992-40.695h0M12.232-39.66h0M5.505-43.771h0M6.885-49.665h0M11.887-45.87h0M19.823-46.733h0M27.585-46.388h0M27.93-48.63h0M32.07-50.528h0M37.417-45.353h0M26.722-43.973h0M29.137-41.213h0M19.132-39.143h0M7.057-32.415h0M13.095-29.655h0M9.3-28.448h0M5.677-26.033h0M4.297-37.418h0M16.2-30.345h0M14.13-27.067h0M13.095-24.653h0M10.852-23.1h0M10.852-19.478h0M17.925-17.753h0M9.645-13.958h0M12.75-11.198h0M6.195-7.748h0M3.607-8.783h0M8.265-4.642h0M11.37-3.608h0M17.062-2.745h0M17.925-6.195h0M17.407-10.163h0M18.787-11.887h0M20.167-18.615h0M19.823-21.548h0M24.308-30.173h0M25.688-32.933h0M32.243-34.313h0M31.725-37.245h0M21.202-36.21h0M37.935-36.383h0M31.897-39.315h0M36.9-39.143h0M43.11-39.66h0M42.248-41.903h0M43.11-44.145h0M42.593-46.388h0M43.455-48.285h0M48.63-47.423h0M45.87-45.18h0M43.628-35.175h0M40.35-35.175h0M40.35-38.625h0M46.905-33.795h0M43.11-30.345h0M38.452-28.965h0M34.83-28.275h0M32.588-24.48h0M25.515-22.928h0M29.684-19.823h0M33.623-15.51h0M34.14-12.405h0M31.035-10.507h0M29.655-8.265h0M26.895-8.265h0M27.24-15.165h0M22.927-8.61h0M23.79-4.298h0M27.93-3.263h0M45.525-12.233h0M43.455-16.545h0M39.66-16.718h0M39.833-22.755h0M45.18-22.41h0M49.838-18.098h0M50.01-14.13h0M45.87-8.955h0M50.528-10.68h0M46.733-6.368h0M47.423-4.47h0M45.18-3.09h0M38.452-3.435h0M32.932-5.677h0M21.72-2.4h0M3.435-31.38h0M11.197-48.113h0M50.528-27.758h0M51.217-23.1h0M4.125-16.372h0M49.665-33.278h0M48.63-8.955h0M2.4-11.715h0M3.952-2.4h0M51.103-35.434h0M2.917-40.005h0M14.475-42.765h0M22.237-44.663h0M20.513-48.975h0M29.827-44.49h0M33.967-44.49h0M34.658-35.865h0M39.833-46.905h0M46.215-47.078h0M45.353-50.183h0M50.01-39.143h0M7.575-19.133h0M5.505-12.405h0M4.297-6.195h0M14.302-3.435h0M16.545-8.093h0M16.545-20.34h0M21.72-16.372h0M27.24-10.163h0M25.688-5.505h0M30.862-13.613h0M38.107-10.335h0M36.21-7.92h0M40.005-6.54h0M19.478-34.658h0M26.378-35.52h0M31.38-32.07h0M37.935-21.893h0M48.285-15.855h0M34.658-18.615h0M27.585-20.858h0M13.785-31.898h0M9.817-26.205h0M47.595-29.138h0M7.057-40.695h0M7.92-47.94h0M4.47-49.838h0M47.94-25.86h0M32.415-8.093h0M19.823-3.263h0M17.235-22.755h0M30.69-27.758h0M47.768-23.618h0M38.798-41.213h0M28.275-39.315h0M11.025-37.763h0M36.21-48.458h0M42.765-37.245h0M48.63-12.06h0M5.677-3.435h0M3.952-42.42h0M13.785-49.665h0M31.38-48.458h0M3.952-29.483h0M7.23-34.313h0M4.297-18.96h0M10.536-15.597h0M8.955-10.335h0M11.37-6.195h0M17.235-14.82h0M25.515-28.103h0M19.995-28.103h0M27.757-31.898h0M44.318-32.933h0M42.593-12.233h0M42.593-22.238h0M40.522-27.067h0M49.838-2.918h0M43.973-6.195h0M32.76-2.4h0M18.96-50.873h0M21.548-5.29h0M26.032-25.86h0M29.31-23.273h0M42.765-28.448h0M7.057-21.893h0M9.127-45.18h0M33.967-30.431h0M13.267-36.038h0M18.787-44.318h0M6.712-45.698h0M6.54-28.103h0M17.235-28.448h0M22.583-21.03h0M45.698-14.475h0M16.89-4.642h0M36.382-50.7h0M51.217-8.093h0M50.7-48.803h0M51.39-16.718h0M50.7-43.973h0M51.045-25.17h0M29.482-50.355h0M16.545-49.493h0M23.962-43.455h0M48.975-36.9h0M31.523-18.328h0M23.445-10.852h0M40.005-14.13h0M10.68-30.115h0M8.667-42.19h0M17.005-38.597h0M25.688-32.933h0M36.9-39.143h0M43.455-48.285h0M33.248-26.809h0M51.217-23.1h0M9.386-17.465h0M11.37-6.195h0M32.76-2.4h0M42.765-28.448h0M19.305-25.803h0M51.217-8.093h0" />
	</g>
</svg>