<svg xmlns="http://www.w3.org/2000/svg" xml:space="preserve" width="85.875" height="85.875"
    viewBox="1.525 -87.793 85.875 85.875" fill="none">
    <path d="M1.525-87.793H87.4v85.875H1.525z" />
    <path
        d="M26.4-77.326h0M38.4-73.576h0M38.067-82.743h0M46.15-79.076h0M69.9-77.076h0M82.15-73.576h0M77.15-82.576h0M55.15-86.326h0M30.9-82.41h0M15.15-76.576h0M14.9-62.326h0M33.65-60.076h0M36.9-51.076h0M44.9-61.076h0M50.65-51.326h0M56.9-62.826h0M64.15-58.826h0M58.15-58.576h0M52.4-58.076h0M42.9-54.826h0M32.4-54.576h0M30.9-48.076h0M29.4-62.576h0M38.4-64.576h0M30.9-72.326h0M18.15-50.076h0M20.65-44.826h0M4.025-39.601h0M6.15-47.576h0M24.4-33.076h0M8.15-24.826h0M24.15-26.326h0M22.15-16.326h0M15.9-15.576h0M15.65-8.326h0M12.275-2.4h0M30.9-6.076h0M37.65-7.826h0M37.9-14.076h0M38.4-22.826h0M30.65-31.326h0M29.65-37.076h0M27.65-42.576h0M35.15-44.826h0M40.4-36.826h0M43.9-48.576h0M56.15-50.326h0M50.15-45.576h0M45.9-41.076h0M51.15-37.826h0M57.4-37.826h0M57.15-43.826h0M62.15-46.826h0M70.9-43.826h0M71.4-55.326h0M68.65-68.826h0M62.65-71.826h0M64.9-82.326h0M84.4-79.326h0M76.4-76.576h0M82.4-67.326h0M73.65-71.826h0M76.4-65.576h0M79.65-58.576h0M84.65-36.576h0M76.9-34.326h0M73.4-38.326h0M69.15-34.826h0M63.65-35.076h0M63.15-29.326h0M69.4-26.576h0M76.65-24.576h0M72.9-31.576h0M81.65-21.326h0M81.4-14.326h0M75.65-12.076h0M69.4-20.326h0M70.15-14.826h0M50.9-13.576h0M43.15-11.576h0M32.4-24.076h0M28.4-17.076h0M20.9-22.326h0M14.15-26.076h0M6.4-31.076h0M2.65-25.826h0M2.9-18.076h0M20.4-9.576h0M49.217-3.643h0M83.65-25.326h0M84.65-44.076h0M78.65-44.576h0M85.65-86.576h0M81.9-83.076h0M2.4-52.576h0M7.65-52.326h0M2.65-9.826h0M5.65-21.576h0M64.65-52.326h0M74.15-49.826h0M81.9-54.326h0M72.4-61.326h0M64.15-65.076h0M51.15-68.826h0M58.4-76.326h0M24.9-69.326h0M19.65-73.076h0M8.4-69.076h0M2.9-77.076h0M2.833-60.726h0M12.9-50.076h0M9.15-57.826h0M16.15-58.076h0M23.4-52.326h0M24.15-61.826h0M20.65-58.826h0M15.4-68.576h0M8.65-79.826h0M14.9-81.576h0M22.65-83.326h0M34.9-39.826h0M20.9-40.326h0M10.15-43.326h0M14.9-33.576h0M38.9-30.826h0M45.65-36.576h0M58.4-33.326h0M63.9-40.326h0M78.4-39.326h0M81.4-29.326h0M64.15-22.826h0M76.9-17.576h0M81.15-7.576h0M55.9-7.076h0M48.9-8.326h0M24.65-9.326h0M6.583-4.742h0M8.15-14.576h0M15.15-20.576h0M33.15-17.576h0M45.15-17.076h0M46.9-26.076h0M52.4-17.826h0M68.583-10.061h0M72.984-5.66h0M64.067-3.076h0M63.15-12.326h0M58.15-14.826h0M57.65-20.576h0M53.65-28.326h0M42.4-44.326h0M38.9-57.826h0M32.9-66.576h0M39.65-68.326h0M44.9-72.826h0M32.65-76.576h0M44.65-84.326h0"
        stroke="oklch(52% 0.00006 271.152)" stroke-width="0.7" stroke-linecap="round" />
    <path
        d="m10.9-79.826 2.25 2.625M11.025-83.576l3.375.125M21.9-80.389l2.688 2.045M18.4-81.451l-2.125 2.75M20.025-84.201l-2.75-1.75M25.275-86.951l-2.25 1.5M26.9-83.576l.125 3.125M30.275-86.143l2.5 1.25M36.65-84.509l2-2.375M41.4-83.576l2.75 2.25M37.275-79.951l.625 3M33.025-79.951l-2.5 2.625M44.025-76.951 41.9-74.326M40.525-70.576l3.375 1.125M36.226-72.235l-3.303-2.474M32.775-69.826 29.9-68.451M36.775-68.701l-1 3.375M41.525-65.576l1.75 2.75M43.525-58.201l-2.75 1.625M39.025-60.951l-3.5-.5M40.4-51.951l3.625.25M38.925-49.96l1.25 3M7.775-83.192l-2.375 2.5M5.275-77.951l4 1.125M4.275-74.201 5.4-70.576M6.025-67.576l-3 2.375M6.034-61.918l-.375 3.625M3.275-55.076l2.875 2M3.65-49.326l-1.625 3M1.9-86.701l3.25.75M10.025-45.701l-1.125-3.5M13.608-45.285l3.125-2.125M10.15-52.951l3.375-.625M8.275-64.076l3.625.125M12.4-73.451l-4.125.25M12.9-70.326l-2 3M15.9-66.701l2.5 2M15.9-74.326l1.125 3.75M27.624-52.826l3.765 1.076M19.981-76.039l3.294 1.338M27.15-74.701l1.583 3.27M23.025-70.701l-2.625 2.75M23.525-65.701l3.375-.5M29.65-64.826l3.25 2M31.525-59.326 29.4-56.451M36.525-53.076l-1.5-3.25M33.092-46.034l2.75-3.125M27.9-46.826l-1.75-3M21.733-46.942l1.125-3.125M21.525-56.159l3.25 1.375M25.393-57.985l1.3-3.517M21.4-62.701l-3.125 2.125M16.692-55.535l2.375 3.125M53.938-79.826l2.25 2.625M54.063-83.576l3.375.125M64.938-80.389l2.688 2.045M61.438-81.451l-2.125 2.75M63.063-84.201l-2.75-1.75M68.313-86.951l-2.25 1.5M69.938-83.576l.125 3.125M73.313-86.143l2.5 1.25M79.688-84.509l2-2.375M84.438-83.576l2.75 2.25M80.313-79.951l.625 3M76.063-79.951l-2.5 2.625M87.063-76.951l-2.125 2.625M83.563-70.576l3.375 1.125M79.688-73.326l-4.125-.125M75.813-69.826l-2.875 1.375M79.813-68.701l-1 3.375M84.563-65.576l1.75 2.75M86.563-58.201l-2.75 1.625M82.063-60.951l-3.5-.5M83.438-51.951l3.625.25M81.962-49.96l1.25 3M50.813-84.326l-2.375 2.5M48.313-77.951l4 1.125M47.313-74.201l1.125 3.625M49.063-67.576l-3 2.375M48.505-60.5l1.69 3.229M46.313-55.076l2.875 2M48.389-49.326l-1.625 3M44.938-86.701l3.25.75M53.913-44.284l-1.125-3.5M57.813-47.576l3.125-2.125M53.188-52.951l3.375-.625M56.054-60.201l-1 3.625M51.478-63.203l3.342-1.409M55.438-73.451l-4.125.25M55.938-70.326l-2 3M58.938-66.701l2.5 2M58.938-74.326l1.125 3.75M62.858-74.537l3.443-.885M70.887-74.46l-1.843 3.132M66.063-70.701l-2.625 2.75M66.563-65.701l3.375-.5M72.688-64.826l3.25 2M75.751-59.056l-2.125 2.875M79.563-53.076l-1.5-3.25M76.413-46.317l2.75-3.125M74.938-52.451h-4M70.938-46.826l-1.75-3M64.9-46.576l1.125-3.125M65.9-55.576l3.25 1.375M10.458-59.91l3.25 1.375M70.012-58.126l-1.7-3.343M64.438-62.701l-3.125 2.125M59.563-56.701l2.375 3.125M10.934-36.822l2.25 2.625M11.059-40.572l3.375.125M21.934-37.384l2.687 2.045M18.434-38.447l-2.125 2.75M20.059-42.047l-2.75-1.75M25.309-43.947l-2.25 1.5M28.067-40.572l-1.637 2.665M30.309-43.139l2.5 1.25M36.684-41.505l2-2.375M41.434-40.572l2.75 2.25M37.309-36.947l.625 3M33.059-36.947l-2.5 2.625M44.059-33.947l-2.125 2.625M40.559-27.572l3.375 1.125M36.605-30.941l-3.957 1.17M32.809-26.822l-2.875 1.375M36.809-25.697l-1 3.375M41.559-22.572l1.75 2.75M43.559-15.197l-2.75 1.625M39.059-17.947l-3.5-.5M40.434-8.947l3.625.25M39.812-5.435l1.25 3M7.809-41.322l-2.375 2.5M5.309-34.947l4 1.125M4.309-31.197l1.125 3.625M6.059-24.572l-3 2.375M6.067-18.914l-.375 3.625M3.309-12.072l2.875 2M3.684-6.322l-1.625 3M1.934-43.697l3.25.75M10.142-2.093l-1.125-3.5M15.163-3.884l3.125-2.125M10.184-9.947l3.375-.625M14.184-17.197l-2.658 2.661M8.309-19.938l3.625.125M12.434-30.447l-4.125.25M12.934-27.322l-2 3M15.934-23.697l2.5 2M15.934-31.322l1.125 3.75M19.809-32.322l3.138 1.671M27.892-31.461l-1.863 3.119M21.372-28.631l-.938 3.684M23.559-22.697l3.375-.5M29.684-21.822l3.25 2M31.559-15.472l-2.125 2.875M36.559-10.072l-1.5-3.25M33.079-3.259l2.75-3.125M31.934-8.597h-4M28.038-2.884l-1.75-3M21.3-4.213l1.125-3.125M21.913-13.343l3.25 1.375M25.554-15.526l1.271-3.528M21.434-19.697l-3.125 2.125M16.559-13.697l2.375 3.125M53.992-36.855l2.25 2.625M54.117-40.605l3.375.125M64.992-37.418l2.688 2.045M61.492-38.48l-2.125 2.75M63.117-42.364l-2.75-1.75M68.367-43.98l-2.25 1.5M71.628-40.219l-1.511 2.739M73.367-43.172l2.5 1.25M79.742-41.539l2-2.375M84.492-40.605l2.75 2.25M80.367-36.98l.625 3M76.117-36.98l-2.5 2.625M87.117-33.98l-2.125 2.625M83.617-27.605l3.375 1.125M79.742-30.355l-4.125-.125M75.867-26.855l-2.875 1.375M79.867-25.73l-1 3.375M84.617-22.605l1.75 2.75M86.617-15.231l-2.75 1.625M82.117-17.98l-3.5-.5M83.492-8.981l3.625.25M83.079-5.635l1.25 3M50.867-41.355l-2.375 2.5M48.367-34.98l4 1.125M47.367-31.23l1.125 3.625M49.117-24.605l-3 2.375M49.126-18.947l-.375 3.625M46.367-12.106l2.875 2M46.742-6.356l-1.625 3.001M44.992-43.73l3.25.75M53.242-2.21l-1.125-3.499M58.055-3.022l3.125-2.125M53.242-9.981l3.375-.625M56.392-17.23l-2.746 2.569M51.367-21.105l3.625.125M55.492-30.48l-4.125.25M55.992-27.355l-2 3M58.992-23.73l2.5 2M58.992-31.355l1.125 3.75M62.867-32.355l3.5.625M69.894-32.337l1.043 3.481M66.117-27.73l-2.625 2.75M66.617-22.73l3.375-.5M72.742-21.855l3.25 2M74.617-16.355l-2.125 2.874M79.617-10.106l-1.5-3.25M76.076-3.772l2.75-3.125M74.761-8.573l-3.537-1.867M71.076-2.251l-1.75-3M64.867-5.856l1.125-3.125M64.617-14.606l3.25 1.375M67.419-16.525l3.347-1.69M64.492-19.73l-3.125 2.125M59.701-12.522l2.375 3.125"
        stroke="oklch(52% 0.00006 271.152)" stroke-width="0.3" />
</svg>